<svg width="64" height="62" viewBox="0 0 64 62" fill="none" xmlns="http://www.w3.org/2000/svg">
<path d="M2.5 31C2.5 46.6659 15.6322 59.5 32 59.5C48.3678 59.5 61.5 46.6659 61.5 31C61.5 15.3341 48.3678 2.5 32 2.5C15.6322 2.5 2.5 15.3341 2.5 31Z" stroke="#D10001" stroke-width="5"/>
<path d="M14.2322 32.7678C13.2559 31.7915 13.2559 30.2085 14.2322 29.2322L30.1421 13.3223C31.1184 12.346 32.7014 12.346 33.6777 13.3223C34.654 14.2986 34.654 15.8816 33.6777 16.8579L19.5355 31L33.6777 45.1421C34.654 46.1184 34.654 47.7014 33.6777 48.6777C32.7014 49.654 31.1184 49.654 30.1421 48.6777L14.2322 32.7678ZM49 33.5H16V28.5H49V33.5Z" fill="#D10001"/>
</svg>
