<svg width="64" height="62" viewBox="0 0 64 62" fill="none" xmlns="http://www.w3.org/2000/svg">
<path d="M61.5 31C61.5 46.6659 48.3678 59.5 32 59.5C15.6322 59.5 2.5 46.6659 2.5 31C2.5 15.3341 15.6322 2.5 32 2.5C48.3678 2.5 61.5 15.3341 61.5 31Z" stroke="#D10001" stroke-width="5"/>
<path d="M49.7678 32.7678C50.7441 31.7915 50.7441 30.2085 49.7678 29.2322L33.8579 13.3223C32.8816 12.346 31.2986 12.346 30.3223 13.3223C29.346 14.2986 29.346 15.8816 30.3223 16.8579L44.4645 31L30.3223 45.1421C29.346 46.1184 29.346 47.7014 30.3223 48.6777C31.2986 49.654 32.8816 49.654 33.8579 48.6777L49.7678 32.7678ZM15 33.5H48V28.5H15V33.5Z" fill="#D10001"/>
</svg>
